<svg width="19" height="20" viewBox="0 0 19 20" fill="none" xmlns="http://www.w3.org/2000/svg">
<path fill-rule="evenodd" clip-rule="evenodd" d="M13.1167 0H5.5C2.7 0 0.4 2.11667 0.0666667 4.83333C0.7 4.86667 1.21667 5.38333 1.21667 6.03333C1.21667 6.68333 0.666667 7.25 0 7.25V8.76667C0.666667 8.76667 1.21667 9.31667 1.21667 9.98333C1.21667 10.65 0.666667 11.2 0 11.2V12.65C0.666667 12.65 1.2 13.2 1.2 13.8667C1.2 14.5333 0.7 15.0167 0.0666667 15.0667C0.366667 17.8167 2.68333 19.9833 5.51667 19.9833H13.1333C16.1667 19.9833 18.6333 17.5167 18.6333 14.4833V5.5C18.6333 2.46667 16.1667 0 13.1333 0H13.1167ZM15.8667 11.45C15.8667 11.85 15.55 12.1833 15.1333 12.1833H8.25C7.85 12.1833 7.51667 11.85 7.51667 11.45V10.4C7.51667 10 7.83333 9.66667 8.25 9.66667H15.1333C15.5333 9.66667 15.8667 9.98333 15.8667 10.4V11.45ZM15.8667 6.58333C15.8667 7.1 15.45 7.51667 14.9333 7.51667H4.86667C4.35 7.51667 3.93333 7.1 3.93333 6.58333V4.43333C3.93333 3.91667 4.35 3.5 4.86667 3.5H14.9333C15.45 3.5 15.8667 3.91667 15.8667 4.43333V6.58333Z" fill="#20283D"/>
</svg>
