<svg width="19" height="20" viewBox="0 0 19 20" fill="none" xmlns="http://www.w3.org/2000/svg">
<path d="M18.8861 8.73709C18.7359 7.54268 18.1118 7.07275 17.7259 6.66156C16.211 5.04478 12.7772 1.78324 10.98 0.513311C9.69293 -0.39578 8.64414 0.0965281 8.00969 0.513311C6.22544 1.68534 2.90296 4.75667 1.3725 6.38184C0.51793 7.28814 0.349605 7.75247 0.207176 8.5273C-0.111347 10.27 0.0181341 14.2392 0.072516 16.0154C0.147615 18.5329 2.15975 19.3748 3.25515 19.5818C6.45592 20.186 13.0335 20.0881 16.2472 19.5818C18.4717 19.2322 18.7644 17.5007 18.8317 16.393C18.9456 14.5553 19.114 10.5609 18.8835 8.73429L18.8861 8.73709ZM12.6788 16.3986H6.31867C5.71529 16.3986 5.22585 15.87 5.22585 15.2182C5.22585 14.5665 5.71529 14.0378 6.31867 14.0378H12.6788C13.2821 14.0378 13.7716 14.5665 13.7716 15.2182C13.7716 15.87 13.2821 16.3986 12.6788 16.3986Z" fill="#20283D"/>
</svg>
