<svg width="23" height="20" viewBox="0 0 23 20" fill="none" xmlns="http://www.w3.org/2000/svg">
<path fill-rule="evenodd" clip-rule="evenodd" d="M16.9423 0H5.55773C2.48777 0 0 2.62791 0 5.8708V14.1266C0 17.3695 2.48777 20 5.55773 20H16.9398C20.0098 20 22.4976 17.3721 22.4976 14.1266V5.8708C22.4976 2.62791 20.0098 0 16.9398 0L16.9423 0ZM13.613 3.49612C14.2882 3.49612 14.8361 4.07494 14.8361 4.78811C14.8361 5.50129 14.2882 6.0801 13.613 6.0801C12.9379 6.0801 12.3899 5.50129 12.3899 4.78811C12.3899 4.07494 12.9379 3.49612 13.613 3.49612ZM19.9682 15.9018C19.9682 16.4315 19.6429 16.8605 19.2417 16.8605H3.25832C2.85714 16.8605 2.5318 16.4315 2.5318 15.9018V13.4238L7.31654 7.10853C7.88405 6.36176 8.80382 6.36176 9.37133 7.10853L14.3689 13.7054C14.3811 13.7209 14.3933 13.739 14.4056 13.7545C14.6991 14.1163 15.159 14.093 15.433 13.7054C15.7069 13.3178 15.6898 12.7106 15.3963 12.3514L14.4569 11.1111L15.3107 9.98708C15.8782 9.24031 16.7979 9.24031 17.3655 9.98708L19.9706 13.4238V15.9044L19.9682 15.9018Z" fill="#C1C9DE"/>
</svg>
